<svg xmlns="http://www.w3.org/2000/svg" width="400" height="300" viewBox="0 0 400 300">
  <!-- Background -->
  <rect width="400" height="300" fill="#1a1a2e" rx="10" ry="10" />
  
  <!-- Mobile Phone Frame -->
  <rect x="120" y="30" width="160" height="240" rx="15" ry="15" fill="#333" stroke="#444" stroke-width="3" />
  <rect x="130" y="50" width="140" height="200" rx="5" ry="5" fill="#0f3460" />
  <circle cx="200" cy="40" r="5" fill="#444" />
  <rect x="185" y="260" width="30" height="5" rx="2" ry="2" fill="#444" />
  
  <!-- Advertisement Elements -->
  <!-- Ad Banner -->
  <rect x="140" y="60" width="120" height="40" rx="5" ry="5" fill="#e94560" />
  <text x="200" y="85" font-family="Arial" font-size="14" fill="white" text-anchor="middle">PREMIUM AD</text>
  
  <!-- Ad Content -->
  <rect x="140" y="110" width="120" height="60" rx="5" ry="5" fill="#fff" />
  <circle cx="160" cy="130" r="10" fill="#e94560" />
  <rect x="180" y="125" width="70" height="5" rx="2" ry="2" fill="#333" />
  <rect x="180" y="135" width="50" height="5" rx="2" ry="2" fill="#666" />
  <rect x="180" y="145" width="60" height="5" rx="2" ry="2" fill="#666" />
  <rect x="180" y="155" width="40" height="5" rx="2" ry="2" fill="#666" />
  
  <!-- User Interface Elements -->
  <rect x="140" y="180" width="120" height="60" rx="5" ry="5" fill="#16213e" />
  <circle cx="155" cy="195" r="8" fill="#e94560" />
  <circle cx="155" cy="215" r="8" fill="#0f3460" stroke="#e94560" stroke-width="2" />
  <circle cx="155" cy="235" r="8" fill="#0f3460" stroke="#e94560" stroke-width="2" />
  
  <rect x="170" y="190" width="80" height="10" rx="2" ry="2" fill="#e94560" opacity="0.7" />
  <rect x="170" y="210" width="80" height="10" rx="2" ry="2" fill="#e94560" opacity="0.4" />
  <rect x="170" y="230" width="80" height="10" rx="2" ry="2" fill="#e94560" opacity="0.4" />
  
  <!-- Notification Icons -->
  <circle cx="260" y="40" r="5" fill="#e94560" />
  <text x="260" y="43" font-family="Arial" font-size="8" fill="white" text-anchor="middle">3</text>
  
  <!-- Connection Lines (API Visualization) -->
  <path d="M300,80 C330,80 330,120 300,120" fill="none" stroke="#e94560" stroke-width="2" />
  <path d="M300,140 C330,140 330,180 300,180" fill="none" stroke="#e94560" stroke-width="2" />
  <path d="M300,200 C330,200 330,240 300,240" fill="none" stroke="#e94560" stroke-width="2" />
  
  <circle cx="300" cy="80" r="5" fill="#e94560" />
  <circle cx="300" cy="120" r="5" fill="#e94560" />
  <circle cx="300" cy="140" r="5" fill="#e94560" />
  <circle cx="300" cy="180" r="5" fill="#e94560" />
  <circle cx="300" cy="200" r="5" fill="#e94560" />
  <circle cx="300" cy="240" r="5" fill="#e94560" />
  
  <!-- Database Symbol -->
  <ellipse cx="350" cy="100" rx="20" ry="10" fill="none" stroke="#e94560" stroke-width="2" />
  <path d="M330,100 L330,140 C330,150 370,150 370,140 L370,100" fill="none" stroke="#e94560" stroke-width="2" />
  <ellipse cx="350" cy="140" rx="20" ry="10" fill="none" stroke="#e94560" stroke-width="2" />
  
  <!-- Server Symbol -->
  <rect x="330" y="180" width="40" height="60" rx="5" ry="5" fill="none" stroke="#e94560" stroke-width="2" />
  <line x1="330" y1="200" x2="370" y2="200" stroke="#e94560" stroke-width="2" />
  <line x1="330" y1="220" x2="370" y2="220" stroke="#e94560" stroke-width="2" />
  <circle cx="340" cy="190" r="3" fill="#e94560" />
  <circle cx="340" cy="210" r="3" fill="#e94560" />
  <circle cx="340" cy="230" r="3" fill="#e94560" />
</svg>