<svg xmlns="http://www.w3.org/2000/svg" width="64" height="64" viewBox="0 0 24 24">
  <path fill="#2496ED" d="M13.983,11.078h2.119c0.1,0,0.186-0.085,0.186-0.186V9.006c0-0.1-0.086-0.186-0.186-0.186h-2.119 c-0.1,0-0.186,0.086-0.186,0.186v1.886C13.797,10.992,13.883,11.078,13.983,11.078 M14.054,16.465 c0.062,0.464,0.456,0.823,0.926,0.823c0.47,0,0.865-0.359,0.926-0.823c0.062-0.464-0.162-0.926-0.552-1.128 c-0.391-0.202-0.865-0.126-1.177,0.187C13.865,15.838,13.992,16.001,14.054,16.465 M4.51,18.954h1.417 c0.211,0,0.376-0.165,0.376-0.376v-1.417c0-0.211-0.165-0.376-0.376-0.376H4.51c-0.211,0-0.376,0.165-0.376,0.376v1.417 C4.133,18.789,4.299,18.954,4.51,18.954 M4.51,16.465h1.417c0.211,0,0.376-0.165,0.376-0.376v-1.417 c0-0.211-0.165-0.376-0.376-0.376H4.51c-0.211,0-0.376,0.165-0.376,0.376v1.417C4.133,16.299,4.299,16.465,4.51,16.465 M4.51,13.976h1.417c0.211,0,0.376-0.165,0.376-0.376v-1.417c0-0.211-0.165-0.376-0.376-0.376H4.51 c-0.211,0-0.376,0.165-0.376,0.376v1.417C4.133,13.81,4.299,13.976,4.51,13.976 M7.071,18.954h1.417 c0.211,0,0.376-0.165,0.376-0.376v-1.417c0-0.211-0.165-0.376-0.376-0.376H7.071c-0.211,0-0.376,0.165-0.376,0.376v1.417 C6.695,18.789,6.859,18.954,7.071,18.954 M7.071,16.465h1.417c0.211,0,0.376-0.165,0.376-0.376v-1.417 c0-0.211-0.165-0.376-0.376-0.376H7.071c-0.211,0-0.376,0.165-0.376,0.376v1.417C6.695,16.299,6.859,16.465,7.071,16.465 M7.071,13.976h1.417c0.211,0,0.376-0.165,0.376-0.376v-1.417c0-0.211-0.165-0.376-0.376-0.376H7.071 c-0.211,0-0.376,0.165-0.376,0.376v1.417C6.695,13.81,6.859,13.976,7.071,13.976 M9.631,18.954h1.417 c0.211,0,0.376-0.165,0.376-0.376v-1.417c0-0.211-0.165-0.376-0.376-0.376H9.631c-0.211,0-0.376,0.165-0.376,0.376v1.417 C9.255,18.789,9.42,18.954,9.631,18.954 M9.631,16.465h1.417c0.211,0,0.376-0.165,0.376-0.376v-1.417 c0-0.211-0.165-0.376-0.376-0.376H9.631c-0.211,0-0.376,0.165-0.376,0.376v1.417C9.255,16.299,9.42,16.465,9.631,16.465 M9.631,13.976h1.417c0.211,0,0.376-0.165,0.376-0.376v-1.417c0-0.211-0.165-0.376-0.376-0.376H9.631 c-0.211,0-0.376,0.165-0.376,0.376v1.417C9.255,13.81,9.42,13.976,9.631,13.976 M12.192,18.954h1.417 c0.211,0,0.376-0.165,0.376-0.376v-1.417c0-0.211-0.165-0.376-0.376-0.376h-1.417c-0.211,0-0.376,0.165-0.376,0.376v1.417 C11.816,18.789,11.981,18.954,12.192,18.954 M12.192,16.465h1.417c0.211,0,0.376-0.165,0.376-0.376v-1.417 c0-0.211-0.165-0.376-0.376-0.376h-1.417c-0.211,0-0.376,0.165-0.376,0.376v1.417C11.816,16.299,11.981,16.465,12.192,16.465 M12.192,13.976h1.417c0.211,0,0.376-0.165,0.376-0.376v-1.417c0-0.211-0.165-0.376-0.376-0.376h-1.417 c-0.211,0-0.376,0.165-0.376,0.376v1.417C11.816,13.81,11.981,13.976,12.192,13.976 M14.752,18.954h1.417 c0.211,0,0.376-0.165,0.376-0.376v-1.417c0-0.211-0.165-0.376-0.376-0.376h-1.417c-0.211,0-0.376,0.165-0.376,0.376v1.417 C14.376,18.789,14.541,18.954,14.752,18.954 M14.752,16.465h1.417c0.211,0,0.376-0.165,0.376-0.376v-1.417 c0-0.211-0.165-0.376-0.376-0.376h-1.417c-0.211,0-0.376,0.165-0.376,0.376v1.417C14.376,16.299,14.541,16.465,14.752,16.465 M14.752,13.976h1.417c0.211,0,0.376-0.165,0.376-0.376v-1.417c0-0.211-0.165-0.376-0.376-0.376h-1.417 c-0.211,0-0.376,0.165-0.376,0.376v1.417C14.376,13.81,14.541,13.976,14.752,13.976 M17.313,18.954h1.417 c0.211,0,0.376-0.165,0.376-0.376v-1.417c0-0.211-0.165-0.376-0.376-0.376h-1.417c-0.211,0-0.376,0.165-0.376,0.376v1.417 C16.937,18.789,17.102,18.954,17.313,18.954 M17.313,16.465h1.417c0.211,0,0.376-0.165,0.376-0.376v-1.417 c0-0.211-0.165-0.376-0.376-0.376h-1.417c-0.211,0-0.376,0.165-0.376,0.376v1.417C16.937,16.299,17.102,16.465,17.313,16.465 M17.313,13.976h1.417c0.211,0,0.376-0.165,0.376-0.376v-1.417c0-0.211-0.165-0.376-0.376-0.376h-1.417 c-0.211,0-0.376,0.165-0.376,0.376v1.417C16.937,13.81,17.102,13.976,17.313,13.976 M19.874,18.954h1.417 c0.211,0,0.376-0.165,0.376-0.376v-1.417c0-0.211-0.165-0.376-0.376-0.376h-1.417c-0.211,0-0.376,0.165-0.376,0.376v1.417 C19.498,18.789,19.663,18.954,19.874,18.954 M19.874,16.465h1.417c0.211,0,0.376-0.165,0.376-0.376v-1.417 c0-0.211-0.165-0.376-0.376-0.376h-1.417c-0.211,0-0.376,0.165-0.376,0.376v1.417C19.498,16.299,19.663,16.465,19.874,16.465 M11.645,11.078h2.119c0.1,0,0.186-0.085,0.186-0.186V9.006c0-0.1-0.086-0.186-0.186-0.186h-2.119 c-0.1,0-0.186,0.086-0.186,0.186v1.886C11.458,10.992,11.545,11.078,11.645,11.078 M9.306,11.078h2.119 c0.1,0,0.186-0.085,0.186-0.186V9.006c0-0.1-0.086-0.186-0.186-0.186H9.306c-0.1,0-0.186,0.086-0.186,0.186v1.886 C9.12,10.992,9.206,11.078,9.306,11.078 M6.968,11.078h2.119c0.1,0,0.186-0.085,0.186-0.186V9.006 c0-0.1-0.086-0.186-0.186-0.186H6.968c-0.1,0-0.186,0.086-0.186,0.186v1.886C6.782,10.992,6.868,11.078,6.968,11.078 M11.645,8.82h2.119c0.1,0,0.186-0.085,0.186-0.186V6.748c0-0.1-0.086-0.186-0.186-0.186h-2.119 c-0.1,0-0.186,0.086-0.186,0.186v1.886C11.458,8.734,11.545,8.82,11.645,8.82 M9.306,8.82h2.119 c0.1,0,0.186-0.085,0.186-0.186V6.748c0-0.1-0.086-0.186-0.186-0.186H9.306c-0.1,0-0.186,0.086-0.186,0.186v1.886 C9.12,8.734,9.206,8.82,9.306,8.82 M6.968,8.82h2.119c0.1,0,0.186-0.085,0.186-0.186V6.748c0-0.1-0.086-0.186-0.186-0.186 H6.968c-0.1,0-0.186,0.086-0.186,0.186v1.886C6.782,8.734,6.868,8.82,6.968,8.82 M4.629,11.078h2.119 c0.1,0,0.186-0.085,0.186-0.186V9.006c0-0.1-0.086-0.186-0.186-0.186H4.629c-0.1,0-0.186,0.086-0.186,0.186v1.886 C4.443,10.992,4.529,11.078,4.629,11.078 M4.629,8.82h2.119c0.1,0,0.186-0.085,0.186-0.186V6.748 c0-0.1-0.086-0.186-0.186-0.186H4.629c-0.1,0-0.186,0.086-0.186,0.186v1.886C4.443,8.734,4.529,8.82,4.629,8.82 M21.786,11.077c-0.236-0.295-0.802-0.295-1.038,0c-0.236,0.295-0.236,0.773,0,1.068c0.236,0.295,0.802,0.295,1.038,0 C22.022,11.85,22.022,11.372,21.786,11.077 M22.75,10.28c0.578,0.578,0.912,1.367,0.912,2.184 c0,1.704-1.392,3.096-3.096,3.096c-0.816,0-1.605-0.335-2.184-0.912c-0.578-0.578-0.912-1.367-0.912-2.184 c0-1.704,1.392-3.096,3.096-3.096C21.383,9.368,22.172,9.702,22.75,10.28"/>
</svg>