<svg xmlns="http://www.w3.org/2000/svg" width="64" height="64" viewBox="0 0 24 24">
  <path fill="#F24E1E" d="M8.5,2h3.5v4h-3.5c-1.105,0-2-0.895-2-2S7.395,2,8.5,2z"/>
  <path fill="#FF7262" d="M8.5,6h3.5v4h-3.5c-1.105,0-2-0.895-2-2S7.395,6,8.5,6z"/>
  <path fill="#A259FF" d="M8.5,10h3.5v4h-3.5c-1.105,0-2-0.895-2-2S7.395,10,8.5,10z"/>
  <path fill="#1ABCFE" d="M8.5,14h3.5v4h-3.5c-1.105,0-2-0.895-2-2S7.395,14,8.5,14z"/>
  <path fill="#0ACF83" d="M12,18v4c1.933,0,3.5-1.567,3.5-3.5S13.933,14,12,14V18z"/>
  <path fill="#F24E1E" d="M15.5,2c1.105,0,2,0.895,2,2s-0.895,2-2,2S13.5,5.105,13.5,4h-1.5V2H15.5z"/>
  <path fill="#FF7262" d="M15.5,6c1.105,0,2,0.895,2,2s-0.895,2-2,2S13.5,9.105,13.5,8h-1.5V6H15.5z"/>
  <path fill="#A259FF" d="M15.5,10c1.105,0,2,0.895,2,2s-0.895,2-2,2S13.5,13.105,13.5,12h-1.5v-2H15.5z"/>
</svg>