<svg xmlns="http://www.w3.org/2000/svg" width="64" height="64" viewBox="0 0 24 24">
  <path fill="#F05032" d="M23.546,11.93L13.067,1.451c-0.604-0.603-1.582-0.603-2.188,0L8.708,3.627l2.76,2.76 c0.645-0.215,1.379-0.07,1.889,0.441c0.516,0.515,0.658,1.258,0.438,1.9l2.658,2.66c0.645-0.223,1.387-0.078,1.9,0.435 c0.721,0.72,0.721,1.884,0,2.604c-0.719,0.719-1.881,0.719-2.6,0c-0.539-0.541-0.674-1.337-0.404-1.996L12.86,8.955v6.525 c0.176,0.086,0.342,0.203,0.488,0.348c0.713,0.721,0.713,1.883,0,2.6c-0.719,0.721-1.889,0.721-2.609,0 c-0.719-0.719-0.719-1.879,0-2.598c0.182-0.18,0.387-0.316,0.605-0.406V8.835c-0.217-0.091-0.424-0.222-0.6-0.401 c-0.545-0.545-0.676-1.342-0.396-2.009L7.636,3.7L0.645,10.692c-0.604,0.602-0.604,1.582,0,2.189l10.48,10.477 c0.604,0.604,1.582,0.604,2.186,0l10.43-10.43C24.147,13.512,24.147,12.532,23.546,11.93"/>
</svg>