<svg xmlns="http://www.w3.org/2000/svg" width="1920" height="1080" viewBox="0 0 1920 1080">
  <defs>
    <linearGradient id="heroGradient" x1="0%" y1="0%" x2="100%" y2="100%">
      <stop offset="0%" style="stop-color:#050816;stop-opacity:1" />
      <stop offset="100%" style="stop-color:#151030;stop-opacity:1" />
    </linearGradient>
    
    <filter id="noise" x="0%" y="0%" width="100%" height="100%">
      <feTurbulence type="fractalNoise" baseFrequency="0.01" numOctaves="3" result="noise" />
      <feColorMatrix type="matrix" values="1 0 0 0 0 0 1 0 0 0 0 0 1 0 0 0 0 0 0.3 0" />
    </filter>
  </defs>
  
  <!-- Background -->
  <rect width="1920" height="1080" fill="url(#heroGradient)" />
  
  <!-- Noise Texture -->
  <rect width="1920" height="1080" filter="url(#noise)" opacity="0.3" />
  
  <!-- Grid Pattern -->
  <g opacity="0.1">
    <!-- Vertical Lines -->
    <line x1="240" y1="0" x2="240" y2="1080" stroke="#aaa6c3" stroke-width="1" />
    <line x1="480" y1="0" x2="480" y2="1080" stroke="#aaa6c3" stroke-width="1" />
    <line x1="720" y1="0" x2="720" y2="1080" stroke="#aaa6c3" stroke-width="1" />
    <line x1="960" y1="0" x2="960" y2="1080" stroke="#aaa6c3" stroke-width="1" />
    <line x1="1200" y1="0" x2="1200" y2="1080" stroke="#aaa6c3" stroke-width="1" />
    <line x1="1440" y1="0" x2="1440" y2="1080" stroke="#aaa6c3" stroke-width="1" />
    <line x1="1680" y1="0" x2="1680" y2="1080" stroke="#aaa6c3" stroke-width="1" />
    
    <!-- Horizontal Lines -->
    <line x1="0" y1="180" x2="1920" y2="180" stroke="#aaa6c3" stroke-width="1" />
    <line x1="0" y1="360" x2="1920" y2="360" stroke="#aaa6c3" stroke-width="1" />
    <line x1="0" y1="540" x2="1920" y2="540" stroke="#aaa6c3" stroke-width="1" />
    <line x1="0" y1="720" x2="1920" y2="720" stroke="#aaa6c3" stroke-width="1" />
    <line x1="0" y1="900" x2="1920" y2="900" stroke="#aaa6c3" stroke-width="1" />
  </g>
  
  <!-- Subtle Glow Effects -->
  <circle cx="480" cy="300" r="100" fill="#915eff" opacity="0.1" filter="blur(50px)" />
  <circle cx="1440" cy="700" r="150" fill="#915eff" opacity="0.1" filter="blur(70px)" />
  <circle cx="960" cy="500" r="200" fill="#915eff" opacity="0.05" filter="blur(100px)" />
</svg>