<svg xmlns="http://www.w3.org/2000/svg" width="64" height="64" viewBox="0 0 24 24">
  <rect width="24" height="24" fill="#F7DF1E"/>
  <path d="M6.5,18.5 L8.5,17.5 C8.9,18.3 9.4,19 10.7,19 C11.9,19 12.6,18.5 12.6,17.7 C12.6,16.8 11.9,16.4 10.6,15.8 L9.9,15.5 C8,14.7 6.8,13.6 6.8,11.5 C6.8,9.5 8.3,8 10.6,8 C12.2,8 13.4,8.5 14.2,10 L12.2,11.1 C11.9,10.4 11.5,10.1 10.6,10.1 C9.7,10.1 9.2,10.6 9.2,11.1 C9.2,11.8 9.7,12.1 10.9,12.7 L11.6,13 C13.8,13.9 15,14.9 15,17.1 C15,19.5 13.1,21 10.8,21 C8.5,21 7,20 6.5,18.5 Z" fill="#000000"/>
  <path d="M16.3,18.4 L18.3,17.4 C18.6,18 19,18.5 19.8,18.5 C20.5,18.5 21,18.2 21,17.7 C21,17.1 20.5,16.9 19.6,16.5 L19.1,16.3 C17.8,15.8 16.9,15.1 16.9,13.6 C16.9,12.2 18,11.1 19.7,11.1 C20.9,11.1 21.8,11.5 22.4,12.6 L20.5,13.7 C20.2,13.2 19.9,13 19.3,13 C18.7,13 18.4,13.3 18.4,13.7 C18.4,14.2 18.7,14.4 19.6,14.8 L20.1,15 C21.6,15.6 22.5,16.3 22.5,17.8 C22.5,19.5 21.1,20.4 19.8,20.4 C18.5,20.4 17.5,19.8 17,18.7 L16.3,18.4 Z" fill="#000000"/>
</svg>