<svg xmlns="http://www.w3.org/2000/svg" width="64" height="64" viewBox="0 0 24 24">
  <path fill="#539E43" d="M12,1.85c-0.27,0-0.54,0.07-0.78,0.2L3.78,6.35C3.3,6.63,3,7.15,3,7.71v8.58 c0,0.56,0.3,1.08,0.78,1.36l7.44,4.3c0.48,0.28,1.08,0.28,1.56,0l7.44-4.3C20.7,17.37,21,16.85,21,16.29V7.71 c0-0.56-0.3-1.08-0.78-1.36l-7.44-4.3C12.54,1.92,12.27,1.85,12,1.85z M12,4l6.5,3.75v7.5L12,19l-6.5-3.75v-7.5L12,4z"/>
  <path fill="#539E43" d="M12,6.5c-0.28,0-0.5,0.22-0.5,0.5v7c0,0.28,0.22,0.5,0.5,0.5s0.5-0.22,0.5-0.5V7 C12.5,6.72,12.28,6.5,12,6.5z"/>
  <path fill="#539E43" d="M14.5,9c-0.28,0-0.5,0.22-0.5,0.5v4c0,0.28,0.22,0.5,0.5,0.5s0.5-0.22,0.5-0.5v-4 C15,9.22,14.78,9,14.5,9z"/>
  <path fill="#539E43" d="M9.5,9C9.22,9,9,9.22,9,9.5v4C9,13.78,9.22,14,9.5,14S10,13.78,10,13.5v-4 C10,9.22,9.78,9,9.5,9z"/>
</svg>