<svg xmlns="http://www.w3.org/2000/svg" width="400" height="300" viewBox="0 0 400 300">
  <defs>
    <linearGradient id="projectGradient" x1="0%" y1="0%" x2="100%" y2="100%">
      <stop offset="0%" style="stop-color:#ff9a9e;stop-opacity:1" />
      <stop offset="100%" style="stop-color:#fad0c4;stop-opacity:1" />
    </linearGradient>
  </defs>
  
  <!-- Background -->
  <rect width="400" height="300" fill="url(#projectGradient)" rx="15" ry="15" />
  
  <!-- Mobile App UI -->
  <rect x="125" y="40" width="150" height="220" rx="10" ry="10" fill="#ffffff" opacity="0.9" />
  <rect x="125" y="40" width="150" height="30" rx="10" ry="10" fill="#2d3436" opacity="0.9" />
  
  <!-- App Content -->
  <rect x="140" y="85" width="120" height="20" rx="5" ry="5" fill="#dfe6e9" opacity="0.8" />
  <rect x="140" y="115" width="120" height="60" rx="5" ry="5" fill="#b2bec3" opacity="0.8" />
  <rect x="140" y="185" width="50" height="10" rx="2" ry="2" fill="#dfe6e9" opacity="0.8" />
  <rect x="140" y="205" width="120" height="10" rx="2" ry="2" fill="#dfe6e9" opacity="0.8" />
  <rect x="140" y="225" width="80" height="10" rx="2" ry="2" fill="#dfe6e9" opacity="0.8" />
  
  <!-- App Navigation -->
  <rect x="140" y="245" width="120" height="1" fill="#2d3436" opacity="0.3" />
  <circle cx="160" cy="255" r="5" fill="#2d3436" opacity="0.5" />
  <circle cx="200" cy="255" r="5" fill="#2d3436" opacity="0.5" />
  <circle cx="240" cy="255" r="5" fill="#2d3436" opacity="0.5" />
  
  <!-- Text -->
  <text x="200" y="280" font-family="Arial" font-size="16" fill="#ffffff" text-anchor="middle">Mobile App</text>
</svg>