<svg xmlns="http://www.w3.org/2000/svg" width="64" height="64" viewBox="0 0 32 32" fill="none">
  <path d="M16 13.146c-1.573 0-2.854 1.281-2.854 2.854s1.281 2.854 2.854 2.854 2.854-1.281 2.854-2.854-1.281-2.854-2.854-2.854z" fill="#ffffff"/>
  <path d="M8.011 21.673l-0.629-0.16c-4.691-1.185-7.381-3.197-7.381-5.519s2.691-4.333 7.381-5.519l0.629-0.159 0.177 0.624c0.545 1.86 1.163 3.443 1.899 4.957l-0.082-0.186 0.135 0.284-0.135 0.284c-0.656 1.329-1.275 2.912-1.761 4.551l-0.056 0.22-0.177 0.623zM7.089 11.933c-3.565 1.001-5.753 2.533-5.753 4.061 0 1.527 2.188 3.059 5.753 4.061 0.509-1.646 1.088-3.044 1.794-4.362l-0.070 0.14c-0.636-1.177-1.215-2.575-1.689-4.027l-0.035-0.122zM23.989 21.673l-0.177-0.625c-0.544-1.859-1.162-3.441-1.9-4.954l0.081 0.184-0.135-0.284 0.135-0.284c0.656-1.329 1.275-2.911 1.762-4.55l0.056-0.221 0.177-0.624 0.631 0.159c4.689 1.185 7.38 3.197 7.38 5.52s-2.691 4.333-7.38 5.519l-0.631 0.16zM23.335 15.995c0.64 1.176 1.218 2.574 1.692 4.025l0.035 0.123c3.564-1.003 5.753-2.535 5.753-4.062 0-1.528-2.189-3.059-5.753-4.062-0.509 1.645-1.088 3.042-1.793 4.36l0.070-0.14zM7.080 11.927l-0.177-0.623c-1.319-4.648-0.919-7.979 1.097-9.105 1.977-1.12 5.371 0.008 9.45 3.161l0.479 0.373-0.479 0.373c-1.366 1.058-2.559 2.272-3.609 3.652l-0.004 0.004-0.23 0.292-0.279 0.347-0.347-0.278c-1.546-1.246-3.095-2.344-4.729-3.278l-0.154-0.082-0.177-0.624zM9.283 3.155c-0.254 0-0.479 0.053-0.694 0.157-1.326 0.752-1.609 3.414-0.408 7.005 1.638 0.949 3.087 1.963 4.446 3.117l0.040 0.035c0.987-1.284 2.102-2.405 3.354-3.354l0.040-0.029c-3.028-2.636-5.978-3.93-7.673-3.93zM24.92 11.927l-0.177 0.625c-1.787 0.999-3.335 2.097-4.744 3.339l-0.046 0.041-0.346 0.279-0.279-0.347c-1.049-1.38-2.241-2.594-3.601-3.647l-0.008-0.006-0.479-0.372 0.479-0.373c4.079-3.153 7.473-4.281 9.45-3.161 2.016 1.127 2.416 4.458 1.097 9.106l-0.177 0.623zM20.717 15.995c1.39-1.167 2.84-2.182 4.405-3.099l0.081-0.043c-1.201-3.591-0.918-6.253 0.408-7.005 1.302-0.737 4.287 0.496 7.559 3.064-1.29 0.978-2.406 2.099-3.355 3.357l-0.039 0.054c-1.396-1.19-2.845-2.204-4.388-3.066l-0.104-0.055zM16.014 9.475c-0.681 0-1.376 0.074-2.058 0.221l0.070-0.012-0.616 0.133-0.133-0.615c-0.402-1.858-0.578-3.659-0.5-5.471l0.008-0.194 0.672-0.167c2.094-0.52 4.038-0.52 5.506 0l0.672 0.167 0.008 0.194c0.078 1.812-0.098 3.612-0.5 5.471l-0.133 0.616-0.616-0.133c-0.613-0.135-1.307-0.209-1.989-0.209zM14.615 8.312c0.863-0.155 1.865-0.155 2.728 0 0.311-1.513 0.438-2.969 0.381-4.431-0.841-0.174-1.821-0.174-2.661 0-0.057 1.462 0.07 2.918 0.381 4.431h-0.829zM16.014 22.523c-0.682 0-1.376-0.074-2.058-0.221l0.070 0.012-0.616-0.133-0.133 0.615c-0.401 1.858-0.578 3.659-0.5 5.471l0.008 0.194 0.672 0.167c2.094 0.52 4.038 0.52 5.506 0l0.672-0.167 0.008-0.194c0.078-1.812-0.098-3.612-0.5-5.471l-0.133-0.615-0.616 0.133c-0.613 0.135-1.307 0.209-1.989 0.209zM14.615 23.688c0.863 0.154 1.865 0.154 2.728 0 0.311 1.513 0.438 2.969 0.381 4.431-0.841 0.174-1.821 0.174-2.661 0-0.057-1.462 0.07-2.918 0.381-4.431z" fill="#ffffff"/>
</svg>