<svg xmlns="http://www.w3.org/2000/svg" width="64" height="64" viewBox="0 0 24 24">
  <path fill="#764ABC" d="M16.634,16.504c0.87-0.075,1.543-0.84,1.5-1.754c-0.047-0.914-0.796-1.648-1.709-1.648h-0.061 c-0.941,0.005-1.705,0.773-1.696,1.715c0.003,0.454,0.189,0.858,0.488,1.158c-1.036,2.053-2.629,3.558-5.005,4.816 c-1.617,0.857-3.292,1.176-4.968,0.969c-1.377-0.169-2.458-0.735-3.131-1.657c-0.988-1.354-1.082-2.814-0.256-4.286 c0.576-1.038,1.479-1.809,2.05-2.188c-0.121-0.364-0.304-0.979-0.391-1.418c-4.343,3.141-3.897,7.387-2.587,9.373 c0.98,1.485,2.985,2.412,5.19,2.412c0.597,0,1.201-0.056,1.803-0.171c3.861-0.723,6.771-2.954,8.399-6.241 C16.59,16.65,16.611,16.575,16.634,16.504z M21.982,13.864c-2.275-2.672-5.63-4.142-9.46-4.142h-0.48 c-0.267-0.535-0.853-0.895-1.518-0.895h-0.064c-0.941,0-1.704,0.773-1.692,1.715c0.012,0.889,0.753,1.63,1.651,1.63h0.061 c0.709-0.008,1.316-0.43,1.577-1.029h0.52c2.264,0,4.4,0.655,6.345,1.947c1.49,0.988,2.56,2.284,3.151,3.833 c0.505,1.283,0.475,2.534-0.063,3.606c-0.861,1.719-2.311,2.662-4.208,2.662c-1.226,0-2.397-0.377-3.006-0.656 c-0.359,0.32-1.01,0.838-1.471,1.142c1.321,0.605,2.665,0.927,3.962,0.927c2.953,0,5.135-1.633,5.967-3.267 C23.535,18.074,23.732,15.66,21.982,13.864z M7.674,19.125c0.01,0.89,0.751,1.631,1.649,1.631h0.061 c0.944-0.005,1.707-0.773,1.695-1.715c-0.01-0.89-0.754-1.631-1.649-1.631h-0.061c-0.068,0-0.128,0.014-0.195,0.021 c-1.145-1.904-1.623-3.967-1.432-6.185c0.129-1.481,0.704-2.768,1.709-3.83c0.842-0.895,2.465-1.338,3.569-1.354 c3.063-0.028,4.358,3.763,4.454,5.295c0.376,0.074,1.013,0.242,1.45,0.353c-0.343-4.613-3.185-7.035-5.903-7.035 c-2.555,0-4.914,1.845-5.847,4.566c-1.329,3.858-0.45,7.568,1.158,10.513C7.602,19.596,7.64,19.369,7.674,19.125z"/>
</svg>