<svg xmlns="http://www.w3.org/2000/svg" width="64" height="64" viewBox="0 0 24 24">
  <rect width="24" height="24" fill="#3178C6"/>
  <path fill="white" d="M18.9099,17.5684v1.5303c-0.2441,0.125-0.5566,0.2324-0.9355,0.3223 c-0.3799,0.0898-0.7783,0.1348-1.1953,0.1348c-0.4131,0-0.8008-0.0391-1.1621-0.1172c-0.3613-0.0781-0.6748-0.2051-0.9414-0.3809 c-0.2656-0.1758-0.4727-0.4004-0.6211-0.6738c-0.1484-0.2734-0.2227-0.6055-0.2227-0.9961v-6.3281h-1.3477v-1.5303h1.3477 V6.4414h1.9805v3.0879h2.4023v1.5303h-2.4023v6.1055c0,0.2578,0.0781,0.4648,0.2344,0.6211 c0.1563,0.1563,0.3906,0.2344,0.7031,0.2344c0.1719,0,0.3496-0.0254,0.5332-0.0762 C18.5996,17.8945,18.7656,17.8359,18.9099,17.5684z M13.9922,11.4297c-0.3125-0.2734-0.6875-0.4805-1.125-0.6211 c-0.4375-0.1406-0.9219-0.2109-1.4531-0.2109c-0.4063,0-0.7969,0.0391-1.1719,0.1172c-0.375,0.0781-0.7031,0.1953-0.9844,0.3516 c-0.2813,0.1563-0.5039,0.3516-0.668,0.5859c-0.1641,0.2344-0.2461,0.5078-0.2461,0.8203c0,0.2969,0.0547,0.543,0.1641,0.7383 c0.1094,0.1953,0.2617,0.3594,0.457,0.4922c0.1953,0.1328,0.4258,0.2422,0.6914,0.3281c0.2656,0.0859,0.5547,0.1641,0.8672,0.2344 c0.3125,0.0703,0.6211,0.1406,0.9258,0.2109c0.3047,0.0703,0.5781,0.1563,0.8203,0.2578c0.2422,0.1016,0.4375,0.2266,0.5859,0.375 c0.1484,0.1484,0.2227,0.3359,0.2227,0.5625c0,0.2031-0.0547,0.375-0.1641,0.5156c-0.1094,0.1406-0.2539,0.2539-0.4336,0.3398 c-0.1797,0.0859-0.3828,0.1484-0.6094,0.1875c-0.2266,0.0391-0.4531,0.0586-0.6797,0.0586c-0.5469,0-1.0781-0.0977-1.5938-0.293 c-0.5156-0.1953-0.9844-0.4883-1.4063-0.8789v1.8281c0.2656,0.1563,0.6133,0.2813,1.043,0.375 c0.4297,0.0938,0.8906,0.1406,1.3828,0.1406c0.4219,0,0.8359-0.0391,1.2422-0.1172c0.4063-0.0781,0.7695-0.2031,1.0898-0.375 c0.3203-0.1719,0.5781-0.3945,0.7734-0.668c0.1953-0.2734,0.293-0.6094,0.293-1.0078c0-0.3281-0.0625-0.6016-0.1875-0.8203 c-0.125-0.2188-0.2969-0.4023-0.5156-0.5508c-0.2188-0.1484-0.4766-0.2695-0.7734-0.3633 c-0.2969-0.0938-0.6133-0.1797-0.9492-0.2578c-0.3359-0.0781-0.668-0.1523-0.9961-0.2227 c-0.3281-0.0703-0.6211-0.1563-0.8789-0.2578c-0.2578-0.1016-0.4648-0.2266-0.6211-0.375 c-0.1563-0.1484-0.2344-0.3359-0.2344-0.5625c0-0.1875,0.0469-0.3477,0.1406-0.4805c0.0938-0.1328,0.2188-0.2422,0.375-0.3281 c0.1563-0.0859,0.3359-0.1484,0.5391-0.1875c0.2031-0.0391,0.4141-0.0586,0.6328-0.0586c0.4531,0,0.8984,0.0859,1.3359,0.2578 c0.4375,0.1719,0.8359,0.4219,1.1953,0.75V11.4297z"/>
</svg>